<?xml version="1.0" encoding="UTF-8" standalone="no"?>
<!-- Created with Inkscape (http://www.inkscape.org/) -->

<svg
   xmlns:osb="http://www.openswatchbook.org/uri/2009/osb"
   xmlns:dc="http://purl.org/dc/elements/1.1/"
   xmlns:cc="http://creativecommons.org/ns#"
   xmlns:rdf="http://www.w3.org/1999/02/22-rdf-syntax-ns#"
   xmlns:svg="http://www.w3.org/2000/svg"
   xmlns="http://www.w3.org/2000/svg"
   xmlns:sodipodi="http://sodipodi.sourceforge.net/DTD/sodipodi-0.dtd"
   xmlns:inkscape="http://www.inkscape.org/namespaces/inkscape"
   width="297mm"
   height="210mm"
   id="svg2985"
   version="1.1"
   inkscape:version="0.48.1 "
   style="display:inline"
   sodipodi:docname="InterstateLogo.svg">
  <defs
     id="defs2987">
    <linearGradient
       id="linearGradient5313"
       osb:paint="solid">
      <stop
         style="stop-color:#000000;stop-opacity:1;"
         offset="0"
         id="stop5315" />
    </linearGradient>
    <linearGradient
       id="linearGradient3807"
       osb:paint="solid">
      <stop
         style="stop-color:#5a234b;stop-opacity:1;"
         offset="0"
         id="stop3809" />
    </linearGradient>
  </defs>
  <sodipodi:namedview
     inkscape:document-units="mm"
     pagecolor="#ffffff"
     bordercolor="#666666"
     borderopacity="1.0"
     inkscape:pageopacity="0.0"
     inkscape:pageshadow="2"
     inkscape:zoom="2.0304053"
     inkscape:cx="337.50189"
     inkscape:cy="549.2151"
     inkscape:current-layer="g29"
     id="namedview2989"
     showgrid="false"
     inkscape:window-width="1680"
     inkscape:window-height="1000"
     inkscape:window-x="-8"
     inkscape:window-y="-8"
     inkscape:window-maximized="1" />
  <metadata
     id="metadata2991">
    <rdf:RDF>
      <cc:Work
         rdf:about="">
        <dc:format>image/svg+xml</dc:format>
        <dc:type
           rdf:resource="http://purl.org/dc/dcmitype/StillImage" />
        <dc:title></dc:title>
      </cc:Work>
    </rdf:RDF>
  </metadata>
  <g
     inkscape:label="Layer 1"
     inkscape:groupmode="layer"
     id="layer1">
    <text
       xml:space="preserve"
       style="font-size:40px;font-style:normal;font-variant:normal;font-weight:normal;font-stretch:normal;line-height:125%;letter-spacing:0px;word-spacing:0px;fill:#ad234b;fill-opacity:1;stroke:none;font-family:InterstatePlus;-inkscape-font-specification:InterstatePlus"
       x="186.56787"
       y="239.67024"
       id="text2994"
       sodipodi:linespacing="125%"><tspan
         sodipodi:role="line"
         id="tspan2996"
         x="186.56787"
         y="239.67024"
         style="letter-spacing:0px;word-spacing:16.35997963px">MEMETIX</tspan></text>
    <text
       xml:space="preserve"
       style="font-size:40px;font-style:normal;font-variant:normal;font-weight:normal;font-stretch:normal;line-height:125%;letter-spacing:0px;word-spacing:0px;fill:#000000;fill-opacity:1;stroke:none;font-family:InterstatePlus;-inkscape-font-specification:InterstatePlus"
       x="184.44847"
       y="259.15381"
       id="text3774"
       sodipodi:linespacing="125%"><tspan
         sodipodi:role="line"
         id="tspan3776"
         x="184.44847"
         y="259.15381" /></text>
    <rect
       style="fill:#ffffff;fill-opacity:0;stroke:none"
       id="rect3815"
       width="29.316313"
       height="9.364933"
       x="189.33452"
       y="242.05263" />
    <rect
       style="fill:#ad234b;fill-opacity:0;stroke:none"
       id="rect3824"
       width="186.07715"
       height="15.879669"
       x="189.33452"
       y="243.68132" />
    <rect
       style="fill:#ad234b;fill-opacity:0;stroke:none"
       id="rect3829"
       width="119.3011"
       height="83.470055"
       x="159.20386"
       y="77.148376" />
    <rect
       style="fill:#ad234b;fill-opacity:1;stroke:none"
       id="rect3859"
       width="187.29868"
       height="13.843815"
       x="189.33452"
       y="241.64546" />
  </g>
  <g
     inkscape:groupmode="layer"
     id="layer6"
     inkscape:label="Layer#2">
    <rect
       style="fill:none;stroke:#ad234b;stroke-width:4.20000076;stroke-linejoin:round;stroke-miterlimit:4;stroke-opacity:1;stroke-dasharray:none;stroke-dashoffset:0"
       id="rect3867"
       width="193.8134"
       height="50.489094"
       x="186.07715"
       y="208.25743" />
  </g>
  <g
     inkscape:groupmode="layer"
     id="layer4"
     inkscape:label="Layer" />
  <g
     inkscape:groupmode="layer"
     id="layer5"
     inkscape:label="Layer#1">
    <text
       xml:space="preserve"
       style="font-size:12px;font-style:normal;font-variant:normal;font-weight:normal;font-stretch:normal;line-height:125%;letter-spacing:20.05000496px;word-spacing:0px;fill:#ffffff;fill-opacity:1;stroke:none;font-family:Century Gothic;-inkscape-font-specification:Century Gothic"
       x="191.77754"
       y="252.63908"
       id="text3862"
       sodipodi:linespacing="125%"><tspan
         sodipodi:role="line"
         id="tspan3864"
         x="191.77754"
         y="252.63908"
         style="letter-spacing:20.05000496px">DEVWORX</tspan></text>
    <g
       transform="matrix(0.272261,0,0,0.272261,199.68623,164.34984)"
       id="g29">
      <path
         style="fill:none"
         inkscape:connector-curvature="0"
         d="m 512.80833,120.4449 c -2.07214,1.35928 -3.77121,3.33631 -4.7642,5.59164 -0.98582,2.22839 -1.39347,4.80033 -0.96895,7.26817 0.3406,2.44639 1.44583,4.75105 3.08806,6.62255 1.64445,1.87884 3.83476,3.2429 6.19205,3.92266 2.35683,0.67628 4.99852,0.6538 7.34329,-0.0613 2.34606,-0.71941 4.51331,-2.11983 6.12619,-4.02587 1.61119,-1.89949 2.67737,-4.22226 2.97756,-6.67357 0.3833,-2.47414 -0.0672,-5.0385 -1.0905,-7.24967 -1.03048,-2.23847 -2.76271,-4.18689 -4.85769,-5.51182 -2.10164,-1.34484 -4.52672,-1.9867 -7.04044,-2.01781 -2.51284,0.0731 -4.92559,0.75481 -7.00537,2.13497 z"
         id="path31" />
      <path
         style="fill:none"
         inkscape:connector-curvature="0"
         d="m 510.20228,116.47063 c -2.8286,1.85455 -5.13136,4.53777 -6.49618,7.62535 -1.36067,3.06412 -1.88986,6.56733 -1.32997,9.91912 0.47394,3.34558 1.98466,6.51332 4.223,9.05625 2.23754,2.5538 5.21998,4.4215 8.45795,5.35076 3.24141,0.92444 6.79201,0.89482 10.01754,-0.084 3.22201,-0.98315 6.17288,-2.90034 8.36752,-5.49154 2.19559,-2.57993 3.65324,-5.77241 4.07217,-9.12544 0.50433,-3.36027 -0.0837,-6.8537 -1.49569,-9.89469 -1.41613,-3.06394 -3.76378,-5.70837 -6.62292,-7.51592 -2.86325,-1.8305 -6.21512,-2.73364 -9.61991,-2.7534 -3.4053,0.0767 -6.74207,1.03506 -9.57351,2.91352 z m 18.40931,1.07863 c 2.62362,1.65853 4.78118,4.08891 6.07891,6.89828 1.29189,2.78514 1.83714,5.99214 1.37043,9.07917 -0.38176,3.07461 -1.71929,5.99926 -3.73442,8.36941 -2.01547,2.37972 -4.72513,4.1374 -7.67664,5.03977 -2.95373,0.89759 -6.22407,0.92487 -9.19236,0.0767 -2.96659,-0.85212 -5.70519,-2.56479 -7.75922,-4.91011 -2.05436,-2.33622 -3.44008,-5.23816 -3.87353,-8.3064 -0.51814,-3.07924 -0.0265,-6.29491 1.21834,-9.10162 1.25068,-2.83064 3.36696,-5.29624 5.9621,-6.9983 2.59973,-1.72465 5.65172,-2.59791 8.78151,-2.67348 3.13019,0.0233 6.19589,0.84557 8.82488,2.52661 z"
         id="path33" />
      <path
         style="fill:#ad234b;fill-opacity:1"
         inkscape:connector-curvature="0"
         d="m 519.66566,100.45969 c -1.12322,0.0631 -2.2501,0.10374 -3.36984,0.21902 -0.85019,-1.744039 -1.81522,-3.47063 -2.89326,-5.169385 -2.72305,0.464846 -5.37034,1.323009 -7.92671,2.369585 0.0491,2.022764 0.20875,4.01077 0.47396,5.94756 -1.03177,0.46677 -1.96711,1.10325 -2.92977,1.69137 -0.96613,0.58426 -1.82293,1.3264 -2.72804,1.99735 -1.68076,-1.03076 -3.40296,-1.93275 -5.22884,-2.77918 -2.03897,1.85273 -3.7856,4.00286 -5.36302,6.25916 1.11027,1.65986 2.33892,3.26147 3.6039,4.7465 -0.60902,0.95267 -1.07596,1.98224 -1.55338,3.00585 -0.51746,1.00658 -0.81982,2.1042 -1.21711,3.16097 -2.00033,0.0336 -3.91352,0.21487 -5.90834,0.49358 -0.72053,2.67088 -1.03457,5.43686 -1.10412,8.17695 1.80806,0.79194 3.68069,1.46922 5.58056,2.03215 0.0641,1.12452 0.10766,2.25007 0.32352,3.3616 0.15946,1.11894 0.36611,2.2275 0.68931,3.31342 -1.61186,1.09336 -3.24778,2.31666 -4.73471,3.61465 0.91337,2.60649 2.0345,5.15398 3.51393,7.48284 1.98655,-0.33288 3.87833,-0.74001 5.78059,-1.29606 0.69595,0.88581 1.31824,1.83516 2.10166,2.6469 0.76574,0.82711 1.50784,1.67782 2.37339,2.40428 -0.76817,1.79399 -1.4614,3.6789 -2.03718,5.60057 2.17648,1.68439 4.48411,3.22146 6.98951,4.39069 1.49301,-1.34794 2.87722,-2.73444 4.16878,-4.20262 1.06524,0.37207 2.11494,0.805 3.20637,1.09353 1.10024,0.25071 2.18145,0.61266 3.30536,0.73693 0.32756,1.92237 0.77024,3.85985 1.32876,5.80156 2.73965,0.27609 5.49458,0.25354 8.22923,-0.0687 0.52564,-1.95119 0.93635,-3.89578 1.2318,-5.82337 1.12124,-0.14299 2.19625,-0.52291 3.29215,-0.79195 1.08648,-0.30757 2.1288,-0.75752 3.18811,-1.1473 1.31632,1.4464 2.72303,2.80963 4.23831,4.13247 2.48515,-1.21086 4.76677,-2.78621 6.91488,-4.50668 -0.60777,-1.9118 -1.33235,-3.78443 -2.13079,-5.56578 0.85291,-0.73993 1.58113,-1.60336 2.33254,-2.44311 0.7702,-0.82471 1.37656,-1.78473 2.05764,-2.6816 1.9117,0.52423 3.80958,0.89932 5.80141,1.19944 1.44035,-2.35366 2.51927,-4.91907 3.38902,-7.54087 -1.5088,-1.27299 -3.16448,-2.46882 -4.79432,-3.53516 0.30501,-1.09114 0.49359,-2.20301 0.63349,-3.32401 0.19765,-1.11542 0.22254,-2.24153 0.26739,-3.36694 1.89064,-0.59501 3.75171,-1.303 5.54588,-2.12542 -0.11527,-2.73811 -0.47543,-5.4989 -1.23953,-8.15697 -1.99917,-0.24539 -3.91512,-0.39472 -5.91574,-0.39494 -0.41528,-1.04956 -0.73551,-2.142 -1.26968,-3.13937 -0.49442,-1.01635 -0.97891,-2.038 -1.6033,-2.97994 1.2396,-1.50634 2.44137,-3.12823 3.52334,-4.80595 -1.61526,-2.22968 -3.39711,-4.35036 -5.46668,-6.16839 -1.81151,0.87678 -3.51843,1.80738 -5.18176,2.86602 -0.91616,-0.65488 -1.78481,-1.38349 -2.76055,-1.95112 -0.97233,-0.57198 -1.91814,-1.19278 -2.95756,-1.64227 0.23198,-1.94095 0.35856,-3.931316 0.37422,-5.954635 -2.57346,-1.003351 -5.23429,-1.817663 -7.9647,-2.237015 -1.04954,1.716498 -1.9865,3.458957 -2.80704,5.21694 -1.12196,-0.097 -2.24892,-0.11883 -3.37304,-0.16321 z m 16.3521,23.36675 c 1.41204,3.04098 1.99958,6.53443 1.49569,9.89469 -0.4185,3.35302 -1.87616,6.5455 -4.07218,9.12545 -2.19421,2.59119 -5.14508,4.50838 -8.36752,5.49151 -3.22552,0.97884 -6.77613,1.00847 -10.01752,0.084 -3.23755,-0.92925 -6.21999,-2.79694 -8.45797,-5.35074 -2.2379,-2.54294 -3.74862,-5.71067 -4.22298,-9.05625 -0.56034,-3.35179 -0.0307,-6.85501 1.32994,-9.91912 1.36484,-3.08758 3.6676,-5.7708 6.49619,-7.62536 2.83144,-1.87845 6.16821,-2.83695 9.57263,-2.91351 3.40483,0.0197 6.75668,0.9229 9.61993,2.75341 2.86001,1.80752 5.20765,4.45196 6.62379,7.51591 z"
         id="path35" />
      <path
         style="fill:#ad234b;fill-opacity:1"
         inkscape:connector-curvature="0"
         d="m 523.51582,147.21455 c 3.02642,-0.68747 5.87109,-2.25767 8.0324,-4.4725 2.14788,-2.19432 3.73224,-5.03536 4.32323,-8.10147 0.66693,-3.02601 0.38309,-6.22927 -0.72536,-9.13641 -1.10454,-2.91539 -3.07178,-5.47695 -5.55315,-7.3128 -2.48451,-1.83233 -5.55804,-2.95005 -8.63919,-3.14164 -3.08062,-0.18677 -6.23375,0.51277 -8.9541,2.03818 -2.71615,1.51631 -4.9917,3.78885 -6.4246,6.53584 -1.51644,2.72913 -2.12631,5.92453 -1.88995,8.98542 0.23375,3.08579 1.40555,6.11705 3.28384,8.58808 1.87507,2.4939 4.4603,4.33609 7.38443,5.45208 2.95913,1.02351 6.12384,1.27224 9.16245,0.56522 z m -16.55337,-14.86826 c -0.18575,-2.4294 0.28862,-4.98945 1.51266,-7.17349 1.13834,-2.19212 2.94924,-3.99562 5.12266,-5.21161 2.17743,-1.22194 4.6975,-1.77636 7.14702,-1.63026 2.44681,0.14974 4.9297,1.0522 6.9014,2.5097 1.97093,1.46094 3.54619,3.50462 4.43009,5.83979 0.88421,2.32794 1.11401,4.87353 0.57809,7.28426 -0.46497,2.4605 -1.74599,4.72769 -3.44866,6.47083 -1.71877,1.76591 -4.00175,3.02423 -6.41833,3.57337 -2.43062,0.56619 -4.9299,0.36133 -7.31014,-0.44882 -2.3442,-0.90797 -4.39152,-2.35689 -5.89085,-4.35173 -1.4992,-1.97356 -2.441,-4.40459 -2.62394,-6.86204 z"
         id="path37" />
    </g>
  </g>
</svg>
