<?xml version="1.0" encoding="UTF-8" standalone="no"?>
<!-- Created with Inkscape (http://www.inkscape.org/) -->

<svg
   xmlns:osb="http://www.openswatchbook.org/uri/2009/osb"
   xmlns:dc="http://purl.org/dc/elements/1.1/"
   xmlns:cc="http://creativecommons.org/ns#"
   xmlns:rdf="http://www.w3.org/1999/02/22-rdf-syntax-ns#"
   xmlns:svg="http://www.w3.org/2000/svg"
   xmlns="http://www.w3.org/2000/svg"
   xmlns:sodipodi="http://sodipodi.sourceforge.net/DTD/sodipodi-0.dtd"
   xmlns:inkscape="http://www.inkscape.org/namespaces/inkscape"
   width="297mm"
   height="210mm"
   id="svg2985"
   version="1.1"
   inkscape:version="0.48.1 "
   style="display:inline"
   sodipodi:docname="InterstateLogo_Gear">
  <defs
     id="defs2987">
    <linearGradient
       id="linearGradient5313"
       osb:paint="solid">
      <stop
         style="stop-color:#000000;stop-opacity:1;"
         offset="0"
         id="stop5315" />
    </linearGradient>
    <linearGradient
       id="linearGradient3807"
       osb:paint="solid">
      <stop
         style="stop-color:#5a234b;stop-opacity:1;"
         offset="0"
         id="stop3809" />
    </linearGradient>
  </defs>
  <sodipodi:namedview
     inkscape:document-units="mm"
     pagecolor="#ffffff"
     bordercolor="#666666"
     borderopacity="1.0"
     inkscape:pageopacity="0.0"
     inkscape:pageshadow="2"
     inkscape:zoom="2.0304053"
     inkscape:cx="290.05463"
     inkscape:cy="510.88723"
     inkscape:current-layer="layer5"
     id="namedview2989"
     showgrid="false"
     inkscape:window-width="1680"
     inkscape:window-height="1000"
     inkscape:window-x="-8"
     inkscape:window-y="-8"
     inkscape:window-maximized="1" />
  <metadata
     id="metadata2991">
    <rdf:RDF>
      <cc:Work
         rdf:about="">
        <dc:format>image/svg+xml</dc:format>
        <dc:type
           rdf:resource="http://purl.org/dc/dcmitype/StillImage" />
        <dc:title></dc:title>
      </cc:Work>
    </rdf:RDF>
  </metadata>
  <g
     inkscape:label="Layer 1"
     inkscape:groupmode="layer"
     id="layer1">
    <text
       xml:space="preserve"
       style="font-size:40px;font-style:normal;font-variant:normal;font-weight:normal;font-stretch:normal;line-height:125%;letter-spacing:0px;word-spacing:0px;fill:#ad234b;fill-opacity:1;stroke:none;font-family:InterstatePlus;-inkscape-font-specification:InterstatePlus"
       x="186.56787"
       y="239.67024"
       id="text2994"
       sodipodi:linespacing="125%"><tspan
         sodipodi:role="line"
         id="tspan2996"
         x="186.56787"
         y="239.67024"
         style="letter-spacing:0px;word-spacing:16.35997963px">MEMETIX</tspan></text>
    <text
       xml:space="preserve"
       style="font-size:40px;font-style:normal;font-variant:normal;font-weight:normal;font-stretch:normal;line-height:125%;letter-spacing:0px;word-spacing:0px;fill:#000000;fill-opacity:1;stroke:none;font-family:InterstatePlus;-inkscape-font-specification:InterstatePlus"
       x="184.44847"
       y="259.15381"
       id="text3774"
       sodipodi:linespacing="125%"><tspan
         sodipodi:role="line"
         id="tspan3776"
         x="184.44847"
         y="259.15381" /></text>
    <rect
       style="fill:#ffffff;fill-opacity:0;stroke:none"
       id="rect3815"
       width="29.316313"
       height="9.364933"
       x="189.33452"
       y="242.05263" />
    <rect
       style="fill:#ad234b;fill-opacity:0;stroke:none"
       id="rect3824"
       width="186.07715"
       height="15.879669"
       x="189.33452"
       y="243.68132" />
    <rect
       style="fill:#ad234b;fill-opacity:0;stroke:none"
       id="rect3829"
       width="119.3011"
       height="83.470055"
       x="159.20386"
       y="77.148376" />
    <rect
       style="fill:#ad234b;fill-opacity:1;stroke:none"
       id="rect3859"
       width="187.29868"
       height="13.843815"
       x="189.33452"
       y="241.64546" />
  </g>
  <g
     inkscape:groupmode="layer"
     id="layer6"
     inkscape:label="Layer#2">
    <rect
       style="fill:none;stroke:#ad234b;stroke-width:4.20000076;stroke-linejoin:round;stroke-miterlimit:4;stroke-opacity:1;stroke-dasharray:none;stroke-dashoffset:0"
       id="rect3867"
       width="193.8134"
       height="50.489094"
       x="186.07715"
       y="208.25743" />
  </g>
  <g
     inkscape:groupmode="layer"
     id="layer4"
     inkscape:label="Layer" />
  <g
     inkscape:groupmode="layer"
     id="layer5"
     inkscape:label="Layer#1">
    <text
       xml:space="preserve"
       style="font-size:12px;font-style:normal;font-variant:normal;font-weight:normal;font-stretch:normal;line-height:125%;letter-spacing:20.05000496px;word-spacing:0px;fill:#ffffff;fill-opacity:1;stroke:none;font-family:Century Gothic;-inkscape-font-specification:Century Gothic"
       x="191.77754"
       y="252.63908"
       id="text3862"
       sodipodi:linespacing="125%"><tspan
         sodipodi:role="line"
         id="tspan3864"
         x="191.77754"
         y="252.63908"
         style="letter-spacing:20.05000496px">DEVW RX</tspan></text>
    <g
       transform="matrix(0.05721153,0.20664944,-0.20664944,0.05721153,310.39403,133.5575)"
       id="g29">
      <path
         style="fill:none"
         inkscape:connector-curvature="0"
         d="m 526.81286,132.36244 c -1.09435,-1.69902 -2.695,-3.098 -4.5274,-3.92309 -1.81047,-0.81908 -3.90505,-1.169 -5.92037,-0.8396 -1.99728,0.26111 -3.88417,1.14671 -5.42149,2.47316 -1.54333,1.32822 -2.67058,3.10507 -3.24093,5.02274 -0.56752,1.91732 -0.56717,4.07169 0,5.98865 0.5707,1.91803 1.69795,3.69488 3.24129,5.0231 1.53802,1.3268 3.42491,2.21204 5.42184,2.47351 2.01497,0.3294 4.10919,-0.0205 5.9193,-0.83996 1.83241,-0.82509 3.43306,-2.22442 4.52776,-3.92379 1.11097,-1.70468 1.65089,-3.67789 1.69335,-5.72754 -0.0425,-2.04964 -0.58202,-4.0218 -1.69335,-5.72718 z"
         id="path31" />
      <path
         style="fill:none"
         inkscape:connector-curvature="0"
         d="m 530.07148,130.26432 c -1.49309,-2.31925 -3.66551,-4.21534 -6.17405,-5.34931 -2.48943,-1.13043 -5.34259,-1.58579 -8.07969,-1.15202 -2.73144,0.36372 -5.3249,1.57412 -7.41381,3.38211 -2.09777,1.80728 -3.6411,4.22666 -4.42091,6.8608 -0.77591,2.63698 -0.77591,5.53259 3.6e-4,8.16956 0.7798,2.63415 2.32314,5.05353 4.42125,6.86081 2.08892,1.80799 4.68238,3.01838 7.41382,3.38281 2.73675,0.43413 5.58955,-0.0216 8.07898,-1.15237 2.50819,-1.13397 4.68061,-3.03042 6.17405,-5.34967 1.5122,-2.32243 2.27149,-5.04963 2.31076,-7.826 -0.0393,-2.77744 -0.7982,-5.50499 -2.31076,-7.82672 z m -1.00483,15.00489 c -1.37032,2.12819 -3.36689,3.87108 -5.66668,4.91023 -2.27998,1.03455 -4.8989,1.45736 -7.41311,1.05578 -2.50464,-0.33223 -4.8805,-1.44285 -6.79959,-3.10224 -1.92687,-1.65974 -3.34177,-3.88134 -4.05754,-6.29435 -0.71187,-2.41478 -0.71187,-5.08182 0,-7.4966 0.71506,-2.41337 2.13032,-4.63496 4.05683,-6.294 1.91909,-1.65938 4.29495,-2.76965 6.79995,-3.10224 2.51456,-0.40158 5.13348,0.0212 7.41381,1.05543 2.29979,1.03915 4.29601,2.78168 5.66633,4.90952 1.38872,2.13173 2.08007,4.62647 2.12041,7.17924 -0.0403,2.55241 -0.73169,5.0468 -2.12041,7.17923 z"
         id="path33" />
      <path
         style="fill:#ffffff;fill-opacity:1"
         inkscape:connector-curvature="0"
         d="m 543.06353,138.09033 c -0.0439,-0.91638 -0.0693,-1.83559 -0.15568,-2.74949 1.42799,-0.68144 2.84254,-1.45665 4.23515,-2.3242 -0.36054,-2.22372 -1.04234,-4.38835 -1.8784,-6.4801 -1.64983,0.0262 -3.27207,0.14294 -4.85326,0.34603 -0.37363,-0.84455 -0.8863,-1.61162 -1.35935,-2.40063 -0.46987,-0.79183 -1.06923,-1.49557 -1.61021,-2.23822 0.85198,-1.3636 1.59924,-2.76187 2.30191,-4.24506 -1.49698,-1.67531 -3.23846,-3.11427 -5.06767,-4.41595 -1.36112,0.89409 -2.67554,1.88512 -3.89514,2.90658 -0.77273,-0.50312 -1.60914,-0.8909 -2.44061,-1.28718 -0.81731,-0.42882 -1.71033,-0.68286 -2.56939,-1.01403 -0.0138,-1.63143 -0.1486,-3.19281 -0.36231,-4.82142 -2.17312,-0.60573 -4.42656,-0.88064 -6.66054,-0.956 -0.6581,1.46903 -1.22314,2.99149 -1.69512,4.53695 -0.91744,0.0446 -1.83559,0.0725 -2.74348,0.24095 -0.91354,0.12242 -1.81895,0.28341 -2.70667,0.53957 -0.88065,-1.32185 -1.86708,-2.66422 -2.91543,-3.88559 -2.13173,0.72709 -4.21675,1.62401 -6.12593,2.81459 0.25793,1.62224 0.57707,3.1677 1.01757,4.72271 -0.72709,0.5615 -1.50548,1.0625 -2.17277,1.69583 -0.67968,0.61882 -1.37846,1.21818 -1.97676,1.91908 -1.45771,-0.63863 -2.99008,-1.21676 -4.55323,-1.69936 -1.38837,1.7634 -2.6575,3.63473 -3.62801,5.66986 1.08904,1.22667 2.21028,2.36489 3.39874,3.4281 -0.31065,0.86614 -0.67083,1.71919 -0.91355,2.60726 -0.21193,0.8955 -0.51444,1.77473 -0.62342,2.6904 -1.56987,0.25404 -3.15283,0.60184 -4.74004,1.0441 -0.24378,2.23221 -0.24413,4.47893 0,6.71114 1.58756,0.44192 3.17052,0.79007 4.7404,1.04411 0.10897,0.91531 0.41148,1.79454 0.62342,2.69004 0.24342,0.88808 0.60325,1.74112 0.9139,2.60761 -1.18846,1.06357 -2.3097,2.20143 -3.39874,3.4281 0.97051,2.03479 2.23964,3.90611 3.62801,5.66952 1.56315,-0.48261 3.09516,-1.06074 4.55323,-1.69973 0.59759,0.70056 1.29673,1.30027 1.9764,1.91874 0.66729,0.63368 1.44604,1.13468 2.17277,1.69618 -0.4405,1.55537 -0.75928,3.10047 -1.01757,4.72271 1.90954,1.19058 3.99421,2.08785 6.12629,2.81494 1.04835,-1.22172 2.03478,-2.56374 2.91543,-3.88558 0.88771,0.25616 1.79312,0.4175 2.70632,0.53921 0.90824,0.16877 1.82638,0.19672 2.74382,0.24095 0.47234,1.54581 1.03703,3.06827 1.69548,4.53695 2.23363,-0.0754 4.48742,-0.35028 6.66019,-0.9553 0.2137,-1.6286 0.34851,-3.18998 0.3623,-4.82142 0.85871,-0.33152 1.75174,-0.58521 2.56869,-1.01403 0.83217,-0.39627 1.66859,-0.7844 2.44096,-1.28717 1.21995,1.0211 2.53437,2.01214 3.89514,2.90587 1.82922,-1.30203 3.57069,-2.74064 5.06732,-4.41595 -0.70267,-1.48319 -1.44993,-2.88146 -2.30191,-4.24506 0.54027,-0.74265 1.14034,-1.44604 1.60985,-2.23787 0.47305,-0.78901 0.98573,-1.55607 1.35935,-2.40063 1.5812,0.20238 3.20343,0.31914 4.85327,0.34568 0.83571,-2.09175 1.51786,-4.25603 1.8784,-6.47975 -1.39261,-0.86755 -2.80716,-1.64346 -4.23516,-2.32455 0.0867,-0.91426 0.11216,-1.83311 0.15604,-2.74949 z m -19.1661,13.17567 c -2.48943,1.13079 -5.34223,1.58615 -8.07898,1.15237 -2.73144,-0.36407 -5.3249,-1.57447 -7.41382,-3.38281 -2.09811,-1.80693 -3.64145,-4.22631 -4.42125,-6.8608 -0.77627,-2.63698 -0.77627,-5.53259 -3.6e-4,-8.16956 0.77981,-2.63379 2.32314,-5.05317 4.42091,-6.86081 2.08891,-1.80763 4.68237,-3.01803 7.41381,-3.3821 2.7371,-0.43413 5.59026,0.0216 8.07969,1.15201 2.50854,1.13398 4.68096,3.03006 6.17405,5.34931 1.51256,2.32173 2.27149,5.04928 2.31076,7.82601 -0.0393,2.77638 -0.79856,5.50358 -2.31076,7.82601 -1.49344,2.31996 -3.66586,4.2164 -6.17405,5.35037 z"
         id="path35" />
      <path
         style="fill:#ffffff;fill-opacity:1"
         inkscape:connector-curvature="0"
         d="m 529.06665,130.91109 c -1.37032,-2.12783 -3.36654,-3.87037 -5.66633,-4.90952 -2.28033,-1.03455 -4.89925,-1.457 -7.41381,-1.05542 -2.505,0.33223 -4.88086,1.4425 -6.79995,3.10224 -1.92651,1.65903 -3.34141,3.88063 -4.05683,6.29399 -0.71187,2.41478 -0.71187,5.08183 0,7.49661 0.71542,2.41301 2.13032,4.6346 4.05754,6.29434 1.91909,1.65904 4.29495,2.76966 6.79959,3.10224 2.51421,0.40158 5.13313,-0.0216 7.41311,-1.05578 2.29979,-1.03915 4.29636,-2.78203 5.66668,-4.91022 1.38872,-2.13209 2.08007,-4.62683 2.12041,-7.17889 -0.0403,-2.55312 -0.73169,-5.04786 -2.12041,-7.17959 z m -6.78155,16.83022 c -1.81011,0.81943 -3.90433,1.16935 -5.9193,0.83995 -1.99728,-0.26147 -3.88417,-1.14671 -5.42184,-2.47351 -1.54334,-1.32822 -2.67059,-3.10507 -3.24129,-5.02309 -0.56717,-1.91697 -0.56752,-4.07134 0,-5.98866 0.57035,-1.91767 1.6976,-3.69452 3.24093,-5.02274 1.53768,-1.32645 3.42457,-2.21204 5.42149,-2.47316 2.01532,-0.3294 4.1099,0.0205 5.92037,0.8396 1.8324,0.8251 3.43305,2.22408 4.5274,3.92309 1.11133,1.70503 1.65089,3.67754 1.69335,5.72754 -0.0425,2.04964 -0.58238,4.02251 -1.69335,5.72754 -1.0947,1.69901 -2.69535,3.09834 -4.52776,3.92344 z"
         id="path37" />
    </g>
  </g>
</svg>
